<?xml version="1.0" encoding="UTF-8" standalone="no"?>
<!--
  ~ Copyright 2017 Nitrite author or authors.
  ~
  ~ Licensed under the Apache License, Version 2.0 (the "License");
  ~ you may not use this file except in compliance with the License.
  ~ You may obtain a copy of the License at
  ~
  ~        http://www.apache.org/licenses/LICENSE-2.0
  ~
  ~ Unless required by applicable law or agreed to in writing, software
  ~ distributed under the License is distributed on an "AS IS" BASIS,
  ~ WITHOUT WARRANTIES OR CONDITIONS OF ANY KIND, either express or implied.
  ~ See the License for the specific language governing permissions and
  ~ limitations under the License.
  -->

<!-- Generator: Adobe Illustrator 19.0.0, SVG Export Plug-In . SVG Version: 6.00 Build 0)  -->

<svg
   xmlns:dc="http://purl.org/dc/elements/1.1/"
   xmlns:cc="http://creativecommons.org/ns#"
   xmlns:rdf="http://www.w3.org/1999/02/22-rdf-syntax-ns#"
   xmlns:sodipodi="http://sodipodi.sourceforge.net/DTD/sodipodi-0.dtd"
   xmlns:inkscape="http://www.inkscape.org/namespaces/inkscape"
   xmlns="http://www.w3.org/2000/svg"
   version="1.1"
   id="Layer_1"
   x="0px"
   y="0px"
   viewBox="0 0 512 512"
   style="enable-background:new 0 0 512 512;"
   xml:space="preserve"
   inkscape:version="0.91 r"
   sodipodi:docname="nitrite-1.svg"><metadata
     id="metadata3853"><rdf:RDF><cc:Work
         rdf:about=""><dc:format>image/svg+xml</dc:format><dc:type
           rdf:resource="http://purl.org/dc/dcmitype/StillImage" /><dc:title/></cc:Work></rdf:RDF></metadata><defs
     id="defs3851" /><sodipodi:namedview
     pagecolor="#ffffff"
     bordercolor="#666666"
     borderopacity="1"
     objecttolerance="10"
     gridtolerance="10"
     guidetolerance="10"
     inkscape:pageopacity="0"
     inkscape:pageshadow="2"
     inkscape:window-width="1920"
     inkscape:window-height="1056"
     id="namedview3849"
     showgrid="false"
     inkscape:zoom="1.7871094"
     inkscape:cx="256"
     inkscape:cy="256"
     inkscape:window-x="0"
     inkscape:window-y="24"
     inkscape:window-maximized="1"
     inkscape:current-layer="Layer_1"
     inkscape:snap-grids="true" /><g
     id="g3819" /><g
     id="g3821" /><g
     id="g3823" /><g
     id="g3825" /><g
     id="g3827" /><g
     id="g3829" /><g
     id="g3831" /><g
     id="g3833" /><g
     id="g3835" /><g
     id="g3837" /><g
     id="g3839" /><g
     id="g3841" /><g
     id="g3843" /><g
     id="g3845" /><g
     id="g3847" /><circle
     style="fill:#ebe9d3"
     cx="233.14301"
     cy="179.71399"
     r="13.714"
     id="circle3795" /><path
     style="fill:#c4d455"
     d="m 256,129.429 c -40.33,0 -73.143,32.813 -73.143,73.143 0,40.33 32.813,73.142 73.143,73.142 40.33,0 73.143,-32.813 73.143,-73.143 0,-40.33 -32.813,-73.142 -73.143,-73.142 z m -22.857,82.285 c -17.643,0 -32,-14.357 -32,-32 0,-17.643 14.357,-32 32,-32 17.643,0 32,14.357 32,32 0,17.643 -14.357,32 -32,32 z"
     id="path3799"
     inkscape:connector-curvature="0" /><g
     id="g3801"
     transform="translate(0,-90)"><path
       style="fill:#65d3af"
       d="m 438.857,402.286 c -12.542,0 -23.911,5.089 -32.179,13.298 l -0.448,0.492 c -8.072,8.248 -13.088,19.5 -13.088,31.924 0,25.205 20.509,45.714 45.714,45.714 25.205,0 45.714,-20.509 45.714,-45.714 0.001,-25.205 -20.508,-45.714 -45.713,-45.714 z m 0,27.428 c -10.085,0 -18.286,8.201 -18.286,18.286 0,5.049 -4.094,9.143 -9.143,9.143 -5.049,0 -9.143,-4.094 -9.143,-9.143 0,-20.165 16.406,-36.571 36.571,-36.571 5.049,0 9.143,4.094 9.143,9.143 0,5.049 -4.093,9.142 -9.142,9.142 z"
       id="path3803"
       inkscape:connector-curvature="0" /><path
       style="fill:#65d3af"
       d="m 73.143,402.286 c -25.205,0 -45.714,20.509 -45.714,45.714 0,25.205 20.509,45.714 45.714,45.714 25.205,0 45.714,-20.509 45.714,-45.714 0,-25.205 -20.509,-45.714 -45.714,-45.714 z m 0,27.428 c -10.085,0 -18.286,8.201 -18.286,18.286 0,5.049 -4.094,9.143 -9.143,9.143 -5.049,0 -9.143,-4.094 -9.143,-9.143 0,-20.165 16.406,-36.571 36.571,-36.571 5.049,0 9.143,4.094 9.143,9.143 0,5.049 -4.093,9.142 -9.142,9.142 z"
       id="path3805"
       inkscape:connector-curvature="0" /></g><g
     id="g3807"
     transform="translate(0,-90)"><path
       style="fill:#314e55"
       d="m 233.143,237.714 c -17.643,0 -32,14.357 -32,32 0,17.643 14.357,32 32,32 17.643,0 32,-14.357 32,-32 0,-17.643 -14.357,-32 -32,-32 z m 0,45.715 c -7.563,0 -13.714,-6.152 -13.714,-13.714 0,-7.563 6.152,-13.714 13.714,-13.714 7.562,0 13.714,6.152 13.714,13.714 0,7.562 -6.152,13.714 -13.714,13.714 z"
       id="path3809"
       inkscape:connector-curvature="0" /><g
       id="g3882"><path
         sodipodi:nodetypes="sccsccsccssssccsccssssssssssssssssccscs"
         inkscape:connector-curvature="0"
         id="path3811"
         d="m 438.857,384 c -15.233,0 -29.225,5.368 -40.226,14.288 L 334.21,339.681 c 8.332,-13.78 13.218,-29.865 13.218,-47.11 0,-47.329 -36.148,-86.363 -82.286,-90.965 8.03998,0.47838 -13.17148,-1.30467 -18.285,0 -46.138,4.603 -82.286,43.636 -82.286,90.965 0,17.239 4.883,33.321 13.211,47.098 L 113.905,398.7 C 102.827,389.525 88.619,384 73.143,384 c -35.29,0 -64,28.71 -64,64 0,35.29 28.71,64 64,64 35.29,0 64,-28.71 64,-64 0,-13.234 -4.038,-25.544 -10.947,-35.76 l 62.619,-57.87 C 205.536,372.534 229.424,384 256,384 c 26.576,0 50.465,-11.467 67.185,-29.631 l 63.02,57.334 c -7.14,10.324 -11.348,22.822 -11.348,36.297 0,35.29 28.71,64 64,64 35.29,0 64,-28.71 64,-64 0,-35.29 -28.71,-64 -64,-64 z M 73.143,493.714 c -25.205,0 -45.714,-20.509 -45.714,-45.714 0,-25.205 20.509,-45.714 45.714,-45.714 25.205,0 45.714,20.509 45.714,45.714 0,25.205 -20.509,45.714 -45.714,45.714 z M 256,365.714 c -40.33,0 -73.143,-32.813 -73.143,-73.143 0,-40.33 32.813,-73.142 73.143,-73.142 40.33,0 73.143,32.813 73.143,73.143 0,40.33 -32.813,73.142 -73.143,73.142 z m 182.857,128 c -25.205,0 -45.714,-20.509 -45.714,-45.714 0,-12.424 5.016,-23.676 13.088,-31.924 l 0.448,-0.492 c 8.269,-8.209 19.637,-13.298 32.179,-13.298 25.205,0 45.714,20.509 45.714,45.714 -10e-4,25.205 -20.51,45.714 -45.715,45.714 z"
         style="fill:#314e55" /></g><path
       style="fill:#314e55"
       d="m 438.857,411.429 c -20.165,0 -36.571,16.406 -36.571,36.571 0,5.049 4.094,9.143 9.143,9.143 5.049,0 9.143,-4.094 9.143,-9.143 0,-10.085 8.201,-18.286 18.286,-18.286 5.049,0 9.143,-4.094 9.143,-9.143 0,-5.049 -4.095,-9.142 -9.144,-9.142 z"
       id="path3813"
       inkscape:connector-curvature="0" /><path
       style="fill:#314e55"
       d="m 73.143,411.429 c -20.165,0 -36.571,16.406 -36.571,36.571 0,5.049 4.094,9.143 9.143,9.143 5.049,0 9.143,-4.094 9.143,-9.143 0,-10.085 8.201,-18.286 18.286,-18.286 5.049,0 9.143,-4.094 9.143,-9.143 0,-5.049 -4.095,-9.142 -9.144,-9.142 z"
       id="path3815"
       inkscape:connector-curvature="0" /></g></svg>