<?xml version="1.0" standalone="no"?><!-- Generator: Gravit.io -->
<svg xmlns="http://www.w3.org/2000/svg" style="isolation:isolate"
     viewBox="7.1429687500000005 86.81161894729233 385.71406249999995 242.87588105270765" width="385.71406249999995"
     height="242.87588105270765">
    <path
        d=" M 171.42891406249998 140.4015546875 C 171.42891406249998 134.48830266853125 176.22972454353123 129.6874921875 182.1429765625 129.6874921875 C 188.05622858146876 129.6874921875 192.8570390625 134.48830266853125 192.8570390625 140.4015546875 C 192.8570390625 146.31480670646874 188.05622858146876 151.11561718750002 182.1429765625 151.11561718750002 C 176.22972454353123 151.11561718750002 171.42891406249998 146.31480670646877 171.42891406249998 140.4015546875 Z "
        fill="rgb(235,233,211)" shape-rendering="geometricPrecision"/>
    <path
        d=" M 200 101.11640625 C 168.4921875 101.11640625 142.85703125 126.75156250000002 142.85703125 158.259375 C 142.85703125 189.76718749999998 168.4921875 215.4015625 200 215.4015625 C 231.5078125 215.4015625 257.14296875 189.76640625000002 257.14296875 158.25859375 C 257.14296875 126.75078124999999 231.50781250000003 101.11640625 200 101.11640625 Z  M 182.14296875 165.4015625 C 168.359375 165.4015625 157.14296875 154.18515625 157.14296875 140.4015625 C 157.14296875 126.61796875 168.359375 115.4015625 182.14296875 115.4015625 C 195.9265625 115.4015625 207.14296875000002 126.61796875 207.14296875000002 140.4015625 C 207.14296875000002 154.18515625 195.92656250000002 165.4015625 182.14296875000002 165.4015625 L 182.14296875 165.4015625 Z "
        fill-rule="evenodd" fill="rgb(196,212,85)" shape-rendering="geometricPrecision"/>
    <path
        d=" M 342.85703125000003 243.9734375 C 333.05859375000006 243.9734375 324.17656250000005 247.94921875 317.7171875 254.3625 L 317.3671875 254.74687500000005 C 311.0609375 261.190625 307.1421875 269.98125000000005 307.1421875 279.6875 C 307.1421875 299.37890625 323.16484375 315.4015625 342.85625 315.4015625 C 362.54765625 315.4015625 378.5703125 299.37890625 378.5703125 279.6875 C 378.57109375 259.99609375 362.54843750000003 243.9734375 342.85703125 243.9734375 L 342.85703125000003 243.9734375 Z  M 342.85703125000003 265.4015625 C 334.97812500000003 265.4015625 328.57109375000005 271.80859375 328.57109375000005 279.6875 C 328.57109375000005 283.63203124999995 325.37265625000003 286.83046875 321.428125 286.83046875 C 317.48359375 286.83046875 314.28515625 283.63203125 314.28515625 279.6875 C 314.28515625 263.93359375 327.10234375 251.11640624999995 342.85625 251.11640624999995 C 346.80078125 251.11640624999995 349.99921875 254.31484374999997 349.99921875 258.259375 C 349.99921875 262.20390625 346.8015625 265.4015625 342.85703125000003 265.4015625 Z "
        fill-rule="evenodd" fill="rgb(101,211,175)" shape-rendering="geometricPrecision"/>
    <path
        d=" M 57.14296875 243.9734375 C 37.4515625 243.9734375 21.42890625 259.99609375 21.42890625 279.6875 C 21.42890625 299.37890625 37.4515625 315.4015625 57.14296875 315.4015625 C 76.834375 315.4015625 92.85703125 299.37890625 92.85703125 279.6875 C 92.85703125 259.99609375 76.834375 243.9734375 57.14296875 243.9734375 Z  M 57.14296875 265.4015625 C 49.2640625 265.4015625 42.85703125 271.80859375 42.85703125 279.6875 C 42.85703125 283.63203124999995 39.65859375 286.83046875 35.7140625 286.83046875 C 31.76953125 286.83046875 28.57109375 283.63203125 28.57109375 279.6875 C 28.57109375 263.93359375 41.38828125 251.11640624999995 57.1421875 251.11640624999995 C 61.08671875 251.11640624999995 64.28515625 254.31484374999997 64.28515625 258.259375 C 64.28515625 262.20390625 61.08749999999999 265.4015625 57.14296875 265.4015625 Z "
        fill-rule="evenodd" fill="rgb(101,211,175)" shape-rendering="geometricPrecision"/>
    <path
        d=" M 182.14296875 115.40156250000001 C 168.359375 115.40156250000001 157.14296875 126.61796874999999 157.14296875 140.4015625 C 157.14296875 154.18515624999998 168.359375 165.4015625 182.14296875 165.4015625 C 195.9265625 165.4015625 207.14296875000002 154.18515624999998 207.14296875000002 140.4015625 C 207.14296875000002 126.61796874999999 195.92656250000002 115.40156250000001 182.14296875000002 115.40156250000001 L 182.14296875 115.40156250000001 Z  M 182.14296875 151.11640624999998 C 176.234375 151.11640624999998 171.42890625 146.31015624999998 171.42890625 140.40234374999997 C 171.42890625 134.49374999999998 176.23515625 129.68828125 182.14296875 129.68828125 C 188.05078125 129.68828125 192.85703125 134.49453124999997 192.85703125 140.40234374999997 C 192.85703125 146.31015624999998 188.05078125 151.11640624999998 182.14296875 151.11640624999998 Z "
        fill-rule="evenodd" fill="rgb(255,255,255)" shape-rendering="geometricPrecision"/>
    <path
        d=" M 342.85703125000003 229.6875 C 330.95625 229.6875 320.025 233.88125000000002 311.43046875000005 240.85000000000002 L 261.1015625 195.06328125 C 267.6109375 184.29765625000002 271.428125 171.73125 271.428125 158.25859375 C 271.428125 121.28281249999998 243.18749999999997 90.78749999999997 207.1421875 87.19218749999996 C 213.423421875 87.56592187499996 196.85196875 86.17291406249998 192.85703125 87.19218749999996 C 156.81171874999998 90.78828124999998 128.57109375 121.28281249999998 128.57109375 158.25859375 C 128.57109375 171.72656249999994 132.3859375 184.29062499999995 138.8921875 195.05390625 L 88.98828125 241.171875 C 80.33359375 234.00390625 69.23359375 229.6875 57.14296875 229.6875 C 29.57265625 229.6875 7.1429687500000005 252.1171875 7.1429687500000005 279.6875 C 7.1429687500000005 307.2578125 29.57265625 329.6875 57.14296875 329.6875 C 84.71328125 329.6875 107.14296875 307.2578125 107.14296875 279.6875 C 107.14296875 269.3484375 103.98828124999999 259.73125 98.590625 251.75 L 147.51171875 206.5390625 C 160.575 220.7296875 179.2375 229.6875 200 229.6875 C 220.76250000000002 229.6875 239.42578125000003 220.72890625000002 252.48828125 206.53828125 L 301.72265625 251.33046875000002 C 296.14453125 259.39609375000003 292.85703125 269.16015625 292.85703125 279.6875 C 292.85703125 307.2578125 315.28671875 329.6875 342.85703125 329.6875 C 370.42734375 329.6875 392.85703125 307.2578125 392.85703125 279.6875 C 392.85703125 252.1171875 370.42734375 229.6875 342.85703125 229.6875 L 342.85703125000003 229.6875 Z  M 57.14296875 315.4015625 C 37.4515625 315.4015625 21.42890625 299.37890625 21.42890625 279.6875 C 21.42890625 259.99609375 37.4515625 243.9734375 57.14296875 243.9734375 C 76.834375 243.9734375 92.85703125 259.99609375 92.85703125 279.6875 C 92.85703125 299.37890625 76.834375 315.4015625 57.14296875 315.4015625 Z  M 200 215.4015625 C 168.4921875 215.4015625 142.85703125 189.76640625 142.85703125 158.25859375000002 C 142.85703125 126.75078125000005 168.4921875 101.11640625000001 200 101.11640625000001 C 231.5078125 101.11640625000001 257.14296875 126.7515625 257.14296875 158.259375 C 257.14296875 189.76718749999998 231.50781250000003 215.4015625 200 215.4015625 Z  M 342.85703125 315.4015625 C 323.165625 315.4015625 307.14296874999997 299.37890625 307.14296874999997 279.6875 C 307.14296874999997 269.98125000000005 311.06171875 261.190625 317.36796875 254.74687500000005 L 317.71796874999995 254.3625 C 324.17812499999997 247.94921875 333.059375 243.9734375 342.85781249999997 243.9734375 C 362.54921874999997 243.9734375 378.571875 259.99609375 378.571875 279.6875 C 378.57109375 299.37890625 362.5484375 315.4015625 342.85703125 315.4015625 Z "
        fill-rule="evenodd" fill="rgb(255,255,255)" shape-rendering="geometricPrecision"/>
    <path
        d=" M 342.85703125000003 251.11640624999995 C 327.103125 251.11640624999995 314.28593750000005 263.93359375 314.28593750000005 279.6875 C 314.28593750000005 283.63203124999995 317.48437500000006 286.83046875 321.42890625000007 286.83046875 C 325.3734375 286.83046875 328.5718750000001 283.63203125 328.5718750000001 279.6875 C 328.5718750000001 271.80859375 334.97890625000014 265.4015625 342.8578125000001 265.4015625 C 346.8023437500001 265.4015625 350.00078125000005 262.203125 350.00078125000005 258.25859375000005 C 350.00078125000005 254.31406250000003 346.80156250000005 251.11640625 342.8570312500001 251.11640625 L 342.85703125000003 251.11640624999995 Z "
        fill="rgb(255,255,255)" shape-rendering="geometricPrecision"/>
    <path
        d=" M 57.14296875 251.11640624999995 C 41.3890625 251.11640624999995 28.571875000000002 263.93359375 28.571875000000002 279.6875 C 28.571875000000002 283.63203124999995 31.770312500000003 286.83046875 35.71484375 286.83046875 C 39.659375000000004 286.83046875 42.8578125 283.63203125 42.8578125 279.6875 C 42.8578125 271.80859375 49.264843750000004 265.4015625 57.143750000000004 265.4015625 C 61.08828125000001 265.4015625 64.28671875 262.203125 64.28671875 258.25859375000005 C 64.28671875 254.31406250000003 61.087500000000006 251.11640625 57.14296875 251.11640625 L 57.14296875 251.11640624999995 Z "
        fill="rgb(255,255,255)" shape-rendering="geometricPrecision"/>
</svg>