<?xml version="1.0" encoding="UTF-8" standalone="no"?>
<!-- Created with Inkscape (http://www.inkscape.org/) -->

<svg
   width="1024"
   height="1024"
   viewBox="0 0 270.93333 270.93333"
   version="1.1"
   id="svg3675"
   inkscape:version="1.2.2 (b0a84865, 2022-12-01)"
   sodipodi:docname="nitrite-logo-v3.svg"
   inkscape:export-filename="nitrite-logo-v3.png"
   inkscape:export-xdpi="96"
   inkscape:export-ydpi="96"
   xmlns:inkscape="http://www.inkscape.org/namespaces/inkscape"
   xmlns:sodipodi="http://sodipodi.sourceforge.net/DTD/sodipodi-0.dtd"
   xmlns="http://www.w3.org/2000/svg"
   xmlns:svg="http://www.w3.org/2000/svg">
  <sodipodi:namedview
     id="namedview3677"
     pagecolor="#ffffff"
     bordercolor="#000000"
     borderopacity="0.25"
     inkscape:showpageshadow="2"
     inkscape:pageopacity="0.0"
     inkscape:pagecheckerboard="0"
     inkscape:deskcolor="#d1d1d1"
     inkscape:document-units="mm"
     showgrid="false"
     inkscape:zoom="0.8359833"
     inkscape:cx="641.75923"
     inkscape:cy="585.53801"
     inkscape:window-width="2560"
     inkscape:window-height="1387"
     inkscape:window-x="0"
     inkscape:window-y="25"
     inkscape:window-maximized="0"
     inkscape:current-layer="g7167" />
  <defs
     id="defs3672" />
  <g
     inkscape:label="Layer 1"
     inkscape:groupmode="layer"
     id="layer1">
    <g
       id="g7167"
       transform="matrix(-1.1405821,0,0,1.1405821,240.42259,-39.367031)">
      <g
         id="g528"
         transform="translate(-16.705197)">
        <path
           id="XMLID_742_"
           style="fill:#e79502;stroke-width:1.25863"
           d="m 157.65046,159.66553 9.24675,24.85765 c 4.15795,11.17752 12.52928,20.40792 23.13956,25.95677 7.05283,3.64373 12.5672,10.04349 15.10763,18.40435 4.21191,14.38599 -2.91253,29.95042 -16.66841,36.11188 -16.19607,7.25925 -34.83119,-0.71699 -40.91299,-17.06627 -2.79255,-7.50731 -2.38644,-15.34995 0.47533,-22.20693 4.58087,-10.91498 4.55098,-23.24824 0.45516,-34.25895 l -9.24692,-24.85764 C 133.90946,152.25906 121.83312,141.74808 107.2713,137.5742 91.689188,133.21013 78.439417,121.33153 73.015295,104.4527 65.070105,79.775671 77.599876,52.704779 101.53225,42.757664 c 26.48719,-10.992451 56.56679,2.222342 66.49625,28.915049 5.89563,15.848806 3.2153,32.893677 -5.63149,45.870247 -8.48005,12.17542 -9.95964,28.10884 -4.74684,42.12249 z" />
        <path
           id="XMLID_736_"
           style="fill:#e6480b;stroke-width:1.26478;stroke-dasharray:none"
           d="m 82.510632,159.55265 -9.677211,24.82912 c -4.351578,11.16471 -12.905706,20.30751 -23.651832,25.71675 -7.142362,3.55073 -12.78209,9.8944 -15.46466,18.25451 -4.455732,14.38726 2.459204,30.13514 16.183062,36.53968 16.158239,7.54546 35.004347,-0.17748 41.369242,-16.50797 2.922541,-7.49871 2.63683,-15.38417 -0.131196,-22.31763 -4.431998,-11.0371 -4.209779,-23.42733 0.07667,-34.42542 l 9.677463,-24.82906 c 5.58542,-14.33088 17.88182,-24.7026 32.57626,-28.66881 15.72272,-4.14143 29.21927,-15.86891 34.93157,-32.74157 8.36697,-24.668191 -3.79925,-52.060116 -27.68774,-62.426592 -26.43918,-11.456204 -56.864396,1.351145 -67.256101,28.013139 -6.170248,15.830516 -3.742788,32.996513 4.942802,46.171193 8.329632,12.36436 9.683751,28.34401 4.112186,42.39248 z" />
        <g
           id="XMLID_968_"
           transform="matrix(1.0615585,0,0,1.096244,-619.1478,-251.70725)"
           style="fill:#41a1dd;fill-opacity:1"
           inkscape:transform-center-x="52.909295"
           inkscape:transform-center-y="92.341551">
          <circle
             id="XMLID_969_"
             style="fill:#41a1dd;fill-opacity:1"
             cx="617.70001"
             cy="383.39999"
             r="24" />
        </g>
      </g>
    </g>
  </g>
</svg>
